<svg width="160px" height="40px" viewBox="0 0 219 42" fill="none" xmlns="http://www.w3.org/2000/svg"><path d="M53.2833 27.0578C53.2833 32.5318 51.6107 37.6152 48.7486 41.8247C43.5233 41.2048 38.2316 40.8 32.8827 40.6195L32.8637 40.574L21.183 17.0595C20.0867 14.8525 17.835 13.4567 15.3706 13.4566L4.47768 13.4565C9.08536 5.84728 17.4425 0.761841 26.9874 0.761841C41.5102 0.761841 53.2833 12.5349 53.2833 27.0578Z" fill="#FFEAD2"></path><path fill-rule="evenodd" clip-rule="evenodd" d="M0.691406 27.0578C0.691406 32.4819 2.33368 37.5225 5.14813 41.7093C10.6773 41.0833 16.2799 40.698 21.9452 40.5642C21.5424 40.5129 21.188 40.2612 21.009 39.8891L10.8015 18.6705C9.58519 16.142 7.02753 14.5341 4.22166 14.5341H3.85945C1.83895 18.2576 0.691406 22.5237 0.691406 27.0578ZM6.78035 28.0753L7.23419 29.4781C7.29691 29.6721 7.57206 29.67 7.63162 29.4749L8.06437 28.0658C8.1524 27.7795 8.37431 27.5538 8.65894 27.4615L10.0616 27.0074C10.2555 26.9447 10.2534 26.6699 10.0584 26.6098L8.64945 26.1768C8.36324 26.0888 8.13816 25.8667 8.04592 25.582L7.59209 24.1792C7.52936 23.9851 7.25422 23.9872 7.19466 24.1818L6.76191 25.5915C6.67388 25.8778 6.45197 26.103 6.16734 26.1953L4.76473 26.6493C4.57128 26.7121 4.57286 26.9874 4.76789 27.047L6.17683 27.4804C6.46304 27.568 6.68811 27.79 6.78035 28.0753Z" fill="#FFEAD2"></path><path d="M5.53906 41.6654C10.9412 41.0652 16.4132 40.6948 21.9449 40.5642C21.5421 40.5128 21.1876 40.2611 21.0086 39.889L15.6939 28.8411C11.7297 32.6017 8.30268 36.9184 5.53906 41.6654Z" fill="#FF4F0A"></path><path d="M23.8355 22.3999C31.3257 17.4977 40.0316 14.2853 49.4059 13.3074C51.8649 17.3081 53.2831 22.0173 53.2831 27.0577C53.2831 32.5318 51.6105 37.6151 48.7484 41.8246C43.5231 41.2047 38.2313 40.7999 32.8824 40.6194L32.8634 40.5739L23.8355 22.3999Z" fill="#FF4F0A"></path><path opacity="0.65" d="M49.4062 13.3075C49.6882 13.7663 49.9565 14.2344 50.2106 14.7113C47.6093 15.4653 45.3968 17.2929 44.1867 19.8086L34.2628 40.4377C34.2233 40.5197 34.1754 40.5959 34.1202 40.6653C33.7081 40.6488 33.2957 40.6335 32.8828 40.6196L32.8639 40.574L28.4268 31.6417L31.64 23.758C33.1305 20.1008 35.8067 17.1704 39.1174 15.3373C42.4325 14.3625 45.8718 13.6762 49.4062 13.3075Z" fill="#121212"></path><path opacity="0.56" d="M34.0936 40.6642C33.6904 40.648 33.2869 40.6331 32.883 40.6194L32.864 40.5739L28.8125 32.4178C32.4435 30.4681 36.3084 28.8975 40.3543 27.7592L34.2817 40.3825C34.2318 40.4863 34.1681 40.5808 34.0936 40.6642Z" fill="#1B1B1B"></path><path fill-rule="evenodd" clip-rule="evenodd" d="M68.7456 14.931C68.6146 14.931 68.4917 14.9946 68.416 15.1016C68.3403 15.2086 68.3212 15.3456 68.3648 15.4692L75.6008 35.9852C75.6578 36.1467 75.8104 36.2547 75.9817 36.2547H79.3918C79.5628 36.2547 79.7154 36.1469 79.7725 35.9856L87.0362 15.4697C87.08 15.346 87.061 15.2089 86.9853 15.1018C86.9096 14.9947 86.7867 14.931 86.6555 14.931H83.7722C83.6004 14.931 83.4474 15.0397 83.3909 15.2019L77.7006 31.5193L72.0103 15.2019C71.9537 15.0397 71.8008 14.931 71.629 14.931H68.7456Z" fill="white"></path><path fill-rule="evenodd" clip-rule="evenodd" d="M115.264 14.931C115.122 14.931 114.99 15.006 114.917 15.1284C114.844 15.2508 114.841 15.4024 114.909 15.5276L122.041 28.6619V35.8509C122.041 36.0739 122.222 36.2547 122.445 36.2547H125.134C125.357 36.2547 125.538 36.0739 125.538 35.8509V28.6619L132.67 15.5276C132.737 15.4024 132.735 15.2508 132.662 15.1284C132.589 15.006 132.457 14.931 132.315 14.931H129.348C129.199 14.931 129.061 15.0136 128.991 15.1456L123.802 24.9269L118.587 15.1449C118.517 15.0133 118.38 14.931 118.231 14.931H115.264Z" fill="white"></path><path fill-rule="evenodd" clip-rule="evenodd" d="M100.96 32.445C104.827 32.445 107.962 29.3099 107.962 25.4425C107.962 21.5752 104.827 18.44 100.96 18.44C97.0926 18.44 93.9575 21.5752 93.9575 25.4425C93.9575 29.3099 97.0926 32.445 100.96 32.445ZM100.96 36.1281C106.861 36.1281 111.646 31.344 111.646 25.4425C111.646 19.5411 106.861 14.757 100.96 14.757C95.0585 14.757 90.2744 19.5411 90.2744 25.4425C90.2744 31.344 95.0585 36.1281 100.96 36.1281Z" fill="white"></path><path fill-rule="evenodd" clip-rule="evenodd" d="M167.642 14.6538C165.911 14.6538 164.38 14.9676 163.058 15.6087C161.769 16.2245 160.687 17.0645 159.816 18.1288L159.815 18.1295C158.97 19.1674 158.336 20.3394 157.914 21.6426L157.913 21.6478C157.513 22.9431 157.312 24.2678 157.312 25.6206C157.312 26.9734 157.513 28.2981 157.913 29.5935L157.915 29.6003C158.337 30.8844 158.97 32.0547 159.813 33.1089L159.815 33.1117C160.669 34.1591 161.743 34.9899 163.032 35.6054C164.335 36.2277 165.847 36.532 167.558 36.532C169.281 36.532 170.852 36.1679 172.264 35.4328L172.268 35.4308C173.688 34.6721 174.814 33.5535 175.644 32.0869C176.501 30.6053 176.917 28.7752 176.917 26.6187V25.2047C176.917 24.9817 176.736 24.8009 176.513 24.8009H167.808C167.585 24.8009 167.404 24.9817 167.404 25.2047V27.4504C167.404 27.6735 167.585 27.8543 167.808 27.8543H173.474C173.321 29.4754 172.753 30.7507 171.792 31.7116C170.774 32.7292 169.38 33.2568 167.558 33.2568C166.447 33.2568 165.486 33.0456 164.665 32.6356C163.828 32.1996 163.126 31.6268 162.553 30.9164C161.993 30.1805 161.573 29.3565 161.291 28.4416C161.007 27.5 160.865 26.5416 160.865 25.5652C160.865 24.6077 161.007 23.6781 161.29 22.775L161.291 22.7729C161.573 21.8566 161.994 21.0415 162.554 20.3242L162.557 20.3205C163.11 19.5944 163.811 19.0137 164.665 18.578C165.503 18.1501 166.501 17.929 167.669 17.929C168.669 17.929 169.47 18.0723 170.087 18.3394L170.091 18.3409C170.754 18.6202 171.268 18.9617 171.647 19.3571C171.651 19.3612 171.655 19.3653 171.659 19.3692C172.077 19.7697 172.379 20.1677 172.576 20.5614L172.579 20.5675C172.793 20.9785 172.926 21.3074 172.989 21.5599L173.1 22.0035C173.145 22.1833 173.306 22.3094 173.491 22.3094H176.236C176.359 22.3094 176.475 22.2538 176.551 22.1583C176.628 22.0627 176.657 21.937 176.63 21.8175L176.522 21.3291C176.459 20.9587 176.319 20.5076 176.113 19.9835C175.897 19.4333 175.586 18.8624 175.186 18.2713C174.773 17.6422 174.236 17.0591 173.582 16.5203C172.91 15.967 172.081 15.5212 171.104 15.1763C170.125 14.824 168.968 14.6538 167.642 14.6538Z" fill="white"></path><path fill-rule="evenodd" clip-rule="evenodd" d="M183.173 14.931C182.95 14.931 182.77 15.1118 182.77 15.3349V35.8509C182.77 36.0739 182.95 36.2547 183.173 36.2547H196.342C196.565 36.2547 196.746 36.0739 196.746 35.8509V33.4666C196.746 33.2435 196.565 33.0627 196.342 33.0627H186.294V26.9948H194.928C195.152 26.9948 195.332 26.814 195.332 26.5909V24.2066C195.332 23.9836 195.152 23.8028 194.928 23.8028H186.294V18.123H196.204C196.427 18.123 196.608 17.9422 196.608 17.7192V15.3349C196.608 15.1118 196.427 14.931 196.204 14.931H183.173Z" fill="white"></path><path fill-rule="evenodd" clip-rule="evenodd" d="M203.416 14.931C203.193 14.931 203.012 15.1118 203.012 15.3349V35.8509C203.012 36.0739 203.193 36.2547 203.416 36.2547H206.133C206.356 36.2547 206.536 36.0739 206.536 35.8509V27.6324H209.642L214.488 36.0523C214.56 36.1775 214.693 36.2547 214.838 36.2547H217.915C218.06 36.2547 218.194 36.1773 218.266 36.0519C218.338 35.9264 218.337 35.772 218.264 35.6471L213.34 27.2208C214.168 26.9468 214.88 26.5532 215.466 26.0338L215.467 26.0333C216.174 25.4046 216.709 24.6728 217.067 23.839C217.421 23.0132 217.598 22.1552 217.598 21.2679C217.598 20.202 217.341 19.1853 216.83 18.223C216.312 17.2462 215.537 16.4547 214.518 15.8474C213.478 15.2275 212.191 14.931 210.679 14.931H203.416ZM206.536 24.4959V18.123H210.652C211.448 18.123 212.069 18.2873 212.543 18.5871C213.039 18.9014 213.403 19.3002 213.645 19.785L213.645 19.785L213.648 19.79C213.895 20.268 214.018 20.7772 214.018 21.3233C214.018 21.8482 213.896 22.3587 213.646 22.8591C213.405 23.3249 213.041 23.716 212.543 24.0318C212.069 24.3316 211.448 24.4959 210.652 24.4959H206.536Z" fill="white"></path><path fill-rule="evenodd" clip-rule="evenodd" d="M142.322 14.931C142.15 14.931 141.998 15.039 141.941 15.2005L134.705 35.7165C134.661 35.8401 134.68 35.9772 134.756 36.0841C134.832 36.1911 134.954 36.2547 135.085 36.2547H137.969C138.14 36.2547 138.293 36.1463 138.35 35.9844L140.913 28.6369C140.923 28.6065 140.93 28.5753 140.933 28.544L144.041 19.6625L144.113 19.8694L147.149 28.5474C147.152 28.5776 147.159 28.6076 147.169 28.6368L149.592 35.5882L149.731 35.9844C149.788 36.1463 149.94 36.2547 150.112 36.2547H152.995C153.127 36.2547 153.249 36.191 153.325 36.0839C153.401 35.9769 153.42 35.8397 153.376 35.7161L146.112 15.2001C146.055 15.0388 145.903 14.931 145.732 14.931H142.322Z" fill="white"></path></svg>